<svg xmlns="http://www.w3.org/2000/svg" width="1287.16" height="247.064"><path fill="none" d="M-1-1h1289.16v249.064H-1z"/><g><path fill="#3498db" d="M115.704 70.286c-1.85 5.5-6.8 12.6-10.45 16.8-3.45 3.65-6.05 5.75-8.65 7.3-4.2 3.15-7.35 4.75-10.25 6.05-12.05 5.25-25.65 5.75-39.55 2.85 5.25-24.6 9.95-49.25 14.4-73.85 8.95-1.05 17.85-1.55 26.75-.5 7.85.75 17 3.9 20.95 7.6 10.45 8.9 11.5 21.2 6.8 33.75zm16.5-50c-18.6-15.75-44.5-16.8-68.1-13.65-2.35-3.65-7.35-5.2-11.5-4.7-7.35 1.05-13.4 6.3-14.7 13.35-1.55 2.1-2.85 4.45-2.85 7.35 0 1.05.25 2.1.75 2.85-4.45 23.6-9.15 47.15-13.85 70.5-11.55 1.05-22.3 16.5-8.15 22.5 1.3.8 2.35 1.3 3.15 1.6-5.25 25.65-10.75 51.85-16.75 77.5-1.6 7.1 6.55 10.5 12.3 9.7 7.6-1.05 13.1-6.55 14.65-13.6 5.25-22.3 10.25-44.8 14.95-67.35 41.4 5.5 85.4-12.8 101.1-54.75 6.55-17.25 3.95-38.75-11-51.3zm105.85 41.9c-15.75-5-29.35 0-41.65 8.1.25-.5.25-.75.25-1.05 1.3-7.05-6.3-10.45-12.05-9.65-7.35.75-13.1 6.5-14.4 13.6-7.85 37.45-13.1 75.45-23.05 112.65-4.2 17 22 15.45 25.4 2.1 7.05-27.8 12.05-56.35 17.55-84.65 9.7-9.4 20.45-22.5 34.85-17.8 12.8 4.2 29.3-18.35 13.1-23.3zm25.9 7.05c-8.1 39.05-15.7 78.05-24.1 116.85-3.15 13.6 25.15 15.45 28.3 1.3 8.65-38.75 16.25-77.8 24.35-116.8 3.15-13.9-25.4-15.5-28.55-1.35zm36.4-55.5c-7.05-9.95-25.9-3.95-29.85 5.25-3.4 7.3-.5 18.3 6.05 22.75 3.9 2.65 7.85 3.95 11.25 3.95 11.5-.55 17.3-5.5 18.6-16.25 0-5.75-2.6-11.5-6.05-15.7zm109.75 50c-7.3-.75-14.1 3.7-17.25 10.25-14.7 25.4-30.4 50.8-46.1 75.4-5.25-26.45-9.95-52.9-13.1-79.6-2.1-14.95-28.85-5-27 8.35 4.7 36.95 11.8 72.85 19.15 109 2.35 11.5 19.6 8.1 24.35.25 22.8-36.4 46.35-72.8 67.55-110.25 3.15-6.05-1.05-12.35-7.6-13.4zm67.85 95.9c-3.65 6.25-9.95 14.15-16.5 16.75-1.3.25-1.55 0-2.35 0-6 0-12.05-6.3-14.4-12.55-6.8-20.2 2.35-44.8 13.6-61.3 9.95-12.05 20.7-22.8 34.85-22.8 2.9 0 6.05 1.05 8.9 2.1-2.6 26.7-10.45 54.45-24.1 77.8zm53.45 1.8c-4.2 2.65-12.85 7.9-15.7 6.85-3.15-5.5-.8-18.9.25-24.9 6.3-17.05 10.45-35.1 13.1-51.6.5-4.7 1.3-8.9 1.55-13.65 0-6.25-.75-9.65-5.75-12.3-59.45-30.35-122.6 42.95-108.95 100.6 7.6 31.45 45.8 40.35 70.2 20.95 3.15-2.6 6.25-5.75 8.9-8.65 2.35 7.35 6.8 14.15 14.15 17.05 11.25 3.9 23.8-3.95 32.75-9.7 11-7.35 3.65-33.8-10.5-24.65zm104.25-90.1c-.8-7.05-9.15-10.2-15.2-9.4-6.55.75-13.35.75-20.15 1.05 1.3-5.8 2.6-11 3.65-16.5 2.9-14.7-18.05-27-21.75-8.65-1.8 8.35-3.65 16.75-5.5 25.15h-15.95c-6.05.25-13.9 4.95-13.1 12.05.5 7.3 8.9 9.4 14.9 9.4 2.9 0 5.8-.5 8.95-.5-5.5 21.75-10.25 43.75-12.05 66-1.05 14.15-1.05 31.95 8.9 43.2 11.75 13.1 28.25 6.55 41.1-1.3 11.8-6.8 2.35-30.4-10.75-22.25-11 7.05-17.8 7.3-17.8-6.3 0-4.7 1.05-13.1 1.85-19.4 3.15-20.15 7.85-39.8 12.55-59.95 9.2 0 18.1 0 27-1.05 6-.55 13.6-4.45 13.35-11.55zm46.1 17.3c5.75-4.7 18.1-9.15 28.05-5.75 8.9 2.85 14.9 12.05 7.3 19.65-13.1 13.1-34.55 13.1-52.35 11.5.5-1.8 1.3-3.4 1.8-5.25 3.4-8.6 7.85-14.1 15.2-20.15zm42.95 35.1c15.2-10.75 28.05-30.65 18.35-49-8.9-16.75-30.15-20.7-47.15-16.2-15.45 3.9-28.8 12.55-39.3 24.85-17.8 21.25-24.9 52.15-17.8 79.1 7.35 27.5 31.45 40.35 58.65 33.55 5.8-1.3 11.3-3.15 16.5-6.05 6.05-2.85 12.35-8.1 11.55-15.95-.8-6.55-8.1-9.95-13.9-7.1-8.9 4.45-18.05 7.9-28 5.8-6.55-1.05-12.6-6.55-16-12.35-3.9-6.25-5.75-13.6-6.3-21.45 22.55 1.3 44.3-1.85 63.4-15.2zm220.55-59.45c-4.95 12.3-20.95 16.75-32.45 19.9-10.25 2.1-20.95 3.4-31.45 3.95 2.35-14.95 5-29.9 7.85-44.55 11.8-6.8 27-7.85 39.8-5.5 12.85 2.1 21.25 14.15 16.25 26.2zm-16.75 60.75c5 3.7 7.05 8.9 6.8 15.2 0 5.5-3.4 13.9-4.7 16.5-1.05 1.85-2.1 3.4-3.4 5 .25-.55-1.6 1.8-1.85 1.8-.25.3-.25.55-.5.55 0 .25-.3.25-.55.5-3.65 2.35-6.55 3.7-12.55 5.25-14.95 3.4-30.9 3.4-46.65 2.9 5-18.35 8.15-36.7 11.55-55.3 7.6-.25 16.25-1.05 25.15-2.1 9.15 1.85 18.85 4.2 26.7 9.7zm39.3-54.75c4.2-24.85-7.6-51.85-32.75-59.45-16.25-4.95-37.45-3.4-53.45 4.45-6.8 1.3-12.55 6.8-14.15 13.1-12.3 50.3-15.7 102.4-29.85 152.2-.5.8-.8 1.55-1.3 2.35-1.05 3.4-.8 6.8 1.05 9.45 1.85 2.6 5.25 4.45 9.15 4.15.8 0 1.6-.25 2.65-.25 35.35 1.85 84.85 3.15 104.25-32.2 9.65-16.8 14.4-39.55-.3-55-2.35-2.4-5.2-4.75-8.1-6.55 11.55-6.85 20.15-17.05 22.8-32.25zm41.1-50.8c-6.25 30.1-13.35 60.25-20.15 90.35-3.65 17.05-7.85 34.35-9.15 51.9-.55 9.65 0 20.65 8.35 26.95 9.45 7.1 21.5 6.3 32.5 3.7 6-1.35 13.1-5.25 10.75-12.35-2.1-6.8-10.75-9.4-17.3-8.65-4.7.55-5.75-.5-6.05-5.2-1.05-14.15 7.6-46.9 10.5-59.5 6.3-28.25 13.1-56.8 19.1-85.35 3.15-13.4-25.15-15.45-28.55-1.85zm40.35 129.65c3.4 25.4 21.2 55.8 51.35 50.55 31.45-4.95 50.3-36.9 55-65.45 4.45-26.2-1.3-63.4-29.35-74.65-15.45-6.55-32.75 1.8-45.55 10.2-24.1 15.2-36.15 50.8-31.45 79.35zm65.25-63.9c13.6-2.35 18.05 8.9 19.6 19.9 3.15 24.1-6 46.1-25.65 60.5-5.5 4.2-13.35 7.35-19.1 7.35-20.2 0-20.45-34.3-16.8-47.7 2.35-9.15 14.95-41.35 41.95-40.05zm104.25 78.85c-5.25 2.6-10.75 5.25-16.8 4.95-13.35-.75-9.95-24.1-8.35-33 2.6-14.65 9.4-30.1 21.2-40.05 11-9.7 24.6-10.25 37.2-6.05-2.35 9.7-3.65 19.65-5 29.35-1.3 8.4-2.6 17-3.9 25.4-7.1 7.35-15.45 14.4-24.35 19.4zm51.6-96.4c-22.55-11.55-47.95-12.3-67.6 4.45-17.55 14.95-27 38.75-30.65 60.75-3.15 19.95-2.35 43.5 12.85 58.15 9.95 10.25 26.45 6.55 37.45 1.35 4.45-1.85 8.4-4.2 12.3-6.85-2.35 22.55-17.8 38-29.35 38-8.65.8-17.25-1.55-25.65-5-6.55-2.6-14.95-1.05-19.65 4.5-4.45 4.95-3.15 12.3 3.15 14.65 21.75 8.65 44.8 11.25 65.75-.8 16.75-9.7 26.2-28 31.95-45.3 6.55-20.45 9.7-41.9 12.85-63.4 1.3-8.9 2.6-18.35 4.15-27.25 1.35-8.1 2.4-14.15 5.25-20.15 3.95-9.2-4.45-13.65-12.8-13.1z"/></g></svg>